<svg version="1.1" xmlns="http://www.w3.org/2000/svg" viewBox="0 0 823.25 520.7204301075268" width="823.25" height="520.7204301075268">
  <!-- svg-source:excalidraw -->
  
  <defs>
    <style class="style-fonts">
      @font-face {
        font-family: "Virgil";
        src: url("https://excalidraw.com/Virgil.woff2");
      }
      @font-face {
        font-family: "Cascadia";
        src: url("https://excalidraw.com/Cascadia.woff2");
      }
    </style>
    
  </defs>
  <g stroke-linecap="round" transform="translate(10 10) rotate(0 201 76)"><path d="M7.86 8.16 C7.86 8.16, 7.86 8.16, 7.86 8.16 M7.86 8.16 C7.86 8.16, 7.86 8.16, 7.86 8.16 M3.66 19.09 C8.64 13.37, 13.61 7.65, 18.1 2.48 M3.66 19.09 C8.86 13.11, 14.06 7.13, 18.1 2.48 M2.75 26.24 C10.55 17.26, 18.36 8.27, 25.05 0.58 M2.75 26.24 C11.12 16.61, 19.49 6.97, 25.05 0.58 M2.48 32.64 C8.79 25.38, 15.09 18.13, 30.7 0.18 M2.48 32.64 C10.18 23.78, 17.88 14.93, 30.7 0.18 M2.88 38.28 C10.13 29.94, 17.38 21.6, 34.37 2.05 M2.88 38.28 C15.03 24.3, 27.18 10.32, 34.37 2.05 M2.62 44.68 C13.76 31.86, 24.9 19.04, 39.36 2.41 M2.62 44.68 C17.29 27.8, 31.96 10.93, 39.36 2.41 M2.36 51.07 C15.4 36.07, 28.45 21.06, 45 2.02 M2.36 51.07 C14.57 37.02, 26.78 22.97, 45 2.02 M2.75 56.72 C16.63 40.75, 30.51 24.79, 49.99 2.38 M2.75 56.72 C14.41 43.31, 26.07 29.9, 49.99 2.38 M2.49 63.11 C22.56 40.02, 42.64 16.93, 55.63 1.98 M2.49 63.11 C15.44 48.22, 28.39 33.32, 55.63 1.98 M2.23 69.51 C24.77 43.58, 47.32 17.64, 60.62 2.34 M2.23 69.51 C22.16 46.58, 42.1 23.65, 60.62 2.34 M2.62 75.16 C23.46 51.19, 44.29 27.22, 66.26 1.95 M2.62 75.16 C18.09 57.36, 33.56 39.57, 66.26 1.95 M2.36 81.55 C19.76 61.54, 37.16 41.52, 71.25 2.31 M2.36 81.55 C18.06 63.49, 33.76 45.43, 71.25 2.31 M2.1 87.95 C25.87 60.6, 49.64 33.26, 76.89 1.91 M2.1 87.95 C23.7 63.1, 45.31 38.24, 76.89 1.91 M2.49 93.59 C22.09 71.05, 41.69 48.51, 81.88 2.27 M2.49 93.59 C23.93 68.94, 45.36 44.29, 81.88 2.27 M2.23 99.99 C35.78 61.4, 69.33 22.8, 87.52 1.88 M2.23 99.99 C19.63 79.98, 37.03 59.97, 87.52 1.88 M1.97 106.39 C20.42 85.17, 38.86 63.95, 92.51 2.24 M1.97 106.39 C24.59 80.37, 47.21 54.35, 92.51 2.24 M2.37 112.03 C29.13 81.24, 55.9 50.45, 98.15 1.85 M2.37 112.03 C24.41 86.68, 46.45 61.33, 98.15 1.85 M0.14 120.69 C24.8 92.33, 49.45 63.96, 103.14 2.21 M0.14 120.69 C38.1 77.02, 76.06 33.35, 103.14 2.21 M0.53 126.34 C41.97 78.67, 83.4 31.01, 108.78 1.81 M0.53 126.34 C25.18 97.99, 49.82 69.63, 108.78 1.81 M2.89 129.72 C41.83 84.93, 80.77 40.13, 113.77 2.17 M2.89 129.72 C30.17 98.34, 57.45 66.95, 113.77 2.17 M3.29 135.36 C48.74 83.08, 94.18 30.8, 119.41 1.78 M3.29 135.36 C35.33 98.5, 67.37 61.64, 119.41 1.78 M5 139.49 C30.99 109.59, 56.98 79.69, 124.4 2.14 M5 139.49 C43.3 95.43, 81.6 51.36, 124.4 2.14 M7.36 142.87 C41.03 104.13, 74.71 65.39, 130.04 1.74 M7.36 142.87 C40.82 104.37, 74.29 65.87, 130.04 1.74 M10.38 145.5 C60.09 88.31, 109.8 31.13, 135.03 2.1 M10.38 145.5 C41.56 109.62, 72.75 73.75, 135.03 2.1 M13.4 148.12 C49.36 106.74, 85.33 65.37, 140.67 1.71 M13.4 148.12 C56.03 99.08, 98.66 50.03, 140.67 1.71 M17.07 149.99 C60.22 100.35, 103.38 50.71, 145.66 2.07 M17.07 149.99 C56.97 104.1, 96.86 58.2, 145.66 2.07 M20.75 151.86 C65.88 99.94, 111.01 48.02, 150.65 2.43 M20.75 151.86 C72.43 92.4, 124.12 32.94, 150.65 2.43 M25.73 152.22 C71.49 99.58, 117.25 46.95, 156.29 2.03 M25.73 152.22 C77.41 92.77, 129.1 33.32, 156.29 2.03 M30.72 152.58 C67.54 110.22, 104.36 67.87, 161.28 2.39 M30.72 152.58 C58.89 120.17, 87.07 87.76, 161.28 2.39 M34.39 154.45 C67.13 116.79, 99.87 79.13, 166.92 2 M34.39 154.45 C63.62 120.83, 92.85 87.21, 166.92 2 M40.04 154.06 C90.22 96.33, 140.4 38.6, 171.91 2.36 M40.04 154.06 C87.72 99.2, 135.4 44.35, 171.91 2.36 M45.02 154.42 C86.13 107.13, 127.23 59.85, 177.55 1.96 M45.02 154.42 C86.99 106.14, 128.95 57.87, 177.55 1.96 M50.67 154.02 C79.48 120.87, 108.3 87.72, 182.54 2.32 M50.67 154.02 C80.6 119.58, 110.54 85.15, 182.54 2.32 M55.65 154.38 C96.2 107.74, 136.74 61.1, 188.18 1.93 M55.65 154.38 C86.83 118.52, 118 82.66, 188.18 1.93 M61.3 153.99 C94.62 115.65, 127.94 77.32, 193.17 2.29 M61.3 153.99 C90.64 120.24, 119.98 86.49, 193.17 2.29 M66.28 154.35 C103.62 111.4, 140.96 68.45, 198.81 1.9 M66.28 154.35 C112.16 101.58, 158.03 48.81, 198.81 1.9 M71.93 153.95 C101.08 120.42, 130.22 86.89, 203.8 2.26 M71.93 153.95 C121.67 96.73, 171.41 39.51, 203.8 2.26 M76.91 154.31 C125.44 98.49, 173.97 42.67, 209.44 1.86 M76.91 154.31 C108.45 118.04, 139.98 81.77, 209.44 1.86 M82.56 153.92 C127.76 101.92, 172.96 49.92, 214.43 2.22 M82.56 153.92 C127.28 102.47, 172 51.02, 214.43 2.22 M87.54 154.28 C136.46 98.01, 185.38 41.74, 220.07 1.83 M87.54 154.28 C129.68 105.81, 171.81 57.34, 220.07 1.83 M93.19 153.88 C135.18 105.58, 177.17 57.27, 225.06 2.19 M93.19 153.88 C142.64 97, 192.09 40.11, 225.06 2.19 M98.18 154.24 C148.75 96.06, 199.33 37.87, 230.7 1.79 M98.18 154.24 C126.3 121.89, 154.43 89.53, 230.7 1.79 M103.16 154.6 C146.86 104.33, 190.56 54.07, 235.69 2.15 M103.16 154.6 C152.22 98.17, 201.28 41.73, 235.69 2.15 M108.81 154.21 C158.66 96.86, 208.51 39.51, 241.33 1.76 M108.81 154.21 C157.26 98.47, 205.71 42.73, 241.33 1.76 M113.79 154.57 C145.55 118.03, 177.31 81.5, 246.32 2.12 M113.79 154.57 C144.13 119.67, 174.47 84.76, 246.32 2.12 M119.44 154.17 C146.78 122.72, 174.12 91.27, 251.96 1.72 M119.44 154.17 C151.47 117.32, 183.5 80.47, 251.96 1.72 M124.42 154.53 C176.43 94.71, 228.44 34.88, 256.95 2.08 M124.42 154.53 C160.76 112.73, 197.1 70.93, 256.95 2.08 M130.07 154.14 C157.48 122.6, 184.9 91.06, 262.59 1.69 M130.07 154.14 C172.85 104.93, 215.63 55.71, 262.59 1.69 M135.05 154.5 C163.36 121.94, 191.66 89.38, 267.58 2.05 M135.05 154.5 C167.87 116.74, 200.69 78.99, 267.58 2.05 M140.7 154.1 C192.66 94.33, 244.62 34.56, 272.56 2.41 M140.7 154.1 C181.57 107.08, 222.45 60.05, 272.56 2.41 M145.68 154.47 C173.49 122.48, 201.3 90.49, 278.21 2.01 M145.68 154.47 C186.73 107.24, 227.79 60.02, 278.21 2.01 M151.33 154.07 C186.29 113.85, 221.25 73.64, 283.19 2.37 M151.33 154.07 C193.93 105.06, 236.54 56.05, 283.19 2.37 M156.31 154.43 C205.23 98.15, 254.15 41.88, 288.84 1.98 M156.31 154.43 C188.08 117.88, 219.85 81.34, 288.84 1.98 M161.96 154.04 C214.54 93.55, 267.12 33.06, 293.82 2.34 M161.96 154.04 C201.6 108.43, 241.25 62.82, 293.82 2.34 M166.94 154.4 C214.75 99.39, 262.57 44.39, 299.47 1.94 M166.94 154.4 C198.15 118.49, 229.36 82.59, 299.47 1.94 M172.59 154 C206.18 115.35, 239.78 76.71, 304.45 2.3 M172.59 154 C198.96 123.66, 225.34 93.31, 304.45 2.3 M177.57 154.36 C222 103.26, 266.42 52.15, 310.1 1.91 M177.57 154.36 C219.15 106.53, 260.73 58.7, 310.1 1.91 M183.22 153.97 C232.58 97.19, 281.94 40.4, 315.08 2.27 M183.22 153.97 C235.61 93.7, 288 33.43, 315.08 2.27 M188.2 154.33 C231.17 104.9, 274.14 55.47, 320.73 1.88 M188.2 154.33 C229.28 107.07, 270.36 59.82, 320.73 1.88 M193.85 153.93 C243.92 96.33, 294 38.72, 325.71 2.24 M193.85 153.93 C231.73 110.36, 269.61 66.78, 325.71 2.24 M198.83 154.29 C230.74 117.59, 262.64 80.89, 331.36 1.84 M198.83 154.29 C235.72 111.86, 272.6 69.43, 331.36 1.84 M204.48 153.9 C253.88 97.06, 303.29 40.22, 336.34 2.2 M204.48 153.9 C241.86 110.89, 279.25 67.89, 336.34 2.2 M209.46 154.26 C246.44 111.72, 283.42 69.18, 341.99 1.81 M209.46 154.26 C248.13 109.78, 286.8 65.29, 341.99 1.81 M215.11 153.86 C260.46 101.69, 305.82 49.51, 346.97 2.17 M215.11 153.86 C243.9 120.74, 272.69 87.62, 346.97 2.17 M220.09 154.22 C261.79 106.26, 303.48 58.3, 352.62 1.77 M220.09 154.22 C252.17 117.32, 284.24 80.43, 352.62 1.77 M225.08 154.58 C271.96 100.66, 318.84 46.73, 357.6 2.13 M225.08 154.58 C270.52 102.31, 315.96 50.04, 357.6 2.13 M230.72 154.19 C271.03 107.82, 311.34 61.45, 363.25 1.74 M230.72 154.19 C262.47 117.67, 294.21 81.15, 363.25 1.74 M235.71 154.55 C282.96 100.19, 330.21 45.84, 370.2 -0.17 M235.71 154.55 C279.68 103.97, 323.64 53.4, 370.2 -0.17 M241.35 154.15 C279.59 110.17, 317.83 66.18, 375.19 0.19 M241.35 154.15 C269.92 121.29, 298.5 88.42, 375.19 0.19 M246.34 154.51 C294.76 98.81, 343.18 43.11, 378.86 2.06 M246.34 154.51 C280.66 115.03, 314.99 75.55, 378.86 2.06 M251.98 154.12 C301.89 96.7, 351.8 39.29, 383.85 2.42 M251.98 154.12 C293.1 106.82, 334.22 59.52, 383.85 2.42 M256.97 154.48 C297.09 108.33, 337.21 62.18, 388.18 3.54 M256.97 154.48 C289.31 117.27, 321.66 80.07, 388.18 3.54 M262.61 154.09 C311.86 97.43, 361.1 40.78, 391.2 6.16 M262.61 154.09 C301.35 109.52, 340.09 64.96, 391.2 6.16 M267.6 154.45 C313.63 101.49, 359.66 48.54, 394.22 8.79 M267.6 154.45 C294.88 123.06, 322.17 91.67, 394.22 8.79 M273.24 154.05 C320.48 99.72, 367.71 45.38, 397.24 11.41 M273.24 154.05 C318.78 101.67, 364.31 49.29, 397.24 11.41 M278.23 154.41 C303.86 124.93, 329.48 95.46, 399.6 14.79 M278.23 154.41 C315.95 111.02, 353.66 67.64, 399.6 14.79 M283.87 154.02 C323.25 108.72, 362.62 63.42, 401.31 18.92 M283.87 154.02 C320.74 111.61, 357.61 69.19, 401.31 18.92 M288.86 154.38 C311.67 128.14, 334.47 101.9, 401.7 24.57 M288.86 154.38 C322.25 115.97, 355.64 77.56, 401.7 24.57 M294.5 153.98 C325.55 118.26, 356.6 82.54, 401.44 30.96 M294.5 153.98 C333.47 109.16, 372.43 64.34, 401.44 30.96 M299.49 154.34 C337.5 110.62, 375.51 66.9, 401.84 36.61 M299.49 154.34 C335.64 112.75, 371.79 71.17, 401.84 36.61 M305.13 153.95 C340.97 112.72, 376.8 71.5, 401.57 43.01 M305.13 153.95 C339.87 113.99, 374.6 74.04, 401.57 43.01 M310.12 154.31 C331.71 129.48, 353.29 104.65, 401.97 48.65 M310.12 154.31 C336.19 124.32, 362.26 94.33, 401.97 48.65 M315.76 153.91 C348.91 115.78, 382.06 77.64, 401.71 55.05 M315.76 153.91 C346.86 118.14, 377.95 82.38, 401.71 55.05 M320.75 154.27 C352.51 117.74, 384.27 81.21, 402.1 60.69 M320.75 154.27 C345.77 125.49, 370.79 96.71, 402.1 60.69 M326.39 153.88 C343.05 134.72, 359.7 115.56, 401.84 67.09 M326.39 153.88 C345.14 132.31, 363.88 110.75, 401.84 67.09 M331.38 154.24 C353.57 128.71, 375.76 103.18, 401.58 73.48 M331.38 154.24 C349.84 133.01, 368.3 111.77, 401.58 73.48 M336.37 154.6 C352.5 136.04, 368.63 117.48, 401.97 79.13 M336.37 154.6 C357.24 130.59, 378.11 106.58, 401.97 79.13 M342.01 154.2 C364.22 128.65, 386.44 103.1, 401.71 85.53 M342.01 154.2 C354.39 139.97, 366.76 125.73, 401.71 85.53 M347 154.56 C364.17 134.81, 381.35 115.05, 402.11 91.17 M347 154.56 C362.84 136.34, 378.68 118.12, 402.11 91.17 M352.64 154.17 C372.29 131.56, 391.94 108.96, 401.85 97.57 M352.64 154.17 C363.31 141.9, 373.97 129.63, 401.85 97.57 M357.63 154.53 C373.23 136.58, 388.84 118.62, 402.24 103.21 M357.63 154.53 C370.65 139.55, 383.68 124.56, 402.24 103.21 M363.27 154.14 C375.67 139.87, 388.07 125.61, 401.98 109.61 M363.27 154.14 C378.22 136.94, 393.16 119.75, 401.98 109.61 M370.23 152.23 C382.23 138.43, 394.23 124.62, 402.37 115.25 M370.23 152.23 C379.41 141.66, 388.6 131.09, 402.37 115.25 M375.87 151.84 C384.98 141.36, 394.09 130.88, 402.77 120.89 M375.87 151.84 C382.03 144.75, 388.18 137.67, 402.77 120.89 M379.54 153.71 C385.71 146.61, 391.87 139.52, 401.85 128.05 M379.54 153.71 C384.94 147.5, 390.34 141.29, 401.85 128.05 M389.78 148.03 C393.56 143.68, 397.34 139.33, 400.93 135.2 M389.78 148.03 C392.87 144.47, 395.97 140.91, 400.93 135.2" stroke="#ffc9c9" stroke-width="0.5" fill="none"></path><path d="M32 0 M32 0 C111.27 0, 190.53 0, 370 0 M32 0 C150.97 0, 269.94 0, 370 0 M370 0 C391.33 0, 402 10.67, 402 32 M370 0 C391.33 0, 402 10.67, 402 32 M402 32 C402 53.71, 402 75.41, 402 120 M402 32 C402 63.18, 402 94.36, 402 120 M402 120 C402 141.33, 391.33 152, 370 152 M402 120 C402 141.33, 391.33 152, 370 152 M370 152 C282.13 152, 194.26 152, 32 152 M370 152 C260.44 152, 150.88 152, 32 152 M32 152 C10.67 152, 0 141.33, 0 120 M32 152 C10.67 152, 0 141.33, 0 120 M0 120 C0 99.86, 0 79.72, 0 32 M0 120 C0 87.36, 0 54.73, 0 32 M0 32 C0 10.67, 10.67 0, 32 0 M0 32 C0 10.67, 10.67 0, 32 0" stroke="#e03131" stroke-width="1" fill="none"></path></g><g transform="translate(32.34165954589844 36) rotate(0 178.65834045410156 50)"><text x="178.65834045410156" y="0" font-family="Virgil, Segoe UI Emoji" font-size="20px" fill="#e03131" text-anchor="middle" style="white-space: pre;" direction="ltr" dominant-baseline="text-before-edge">Jetstream2</text><text x="178.65834045410156" y="25" font-family="Virgil, Segoe UI Emoji" font-size="20px" fill="#e03131" text-anchor="middle" style="white-space: pre;" direction="ltr" dominant-baseline="text-before-edge">S3-Compatible API:</text><text x="178.65834045410156" y="50" font-family="Virgil, Segoe UI Emoji" font-size="20px" fill="#e03131" text-anchor="middle" style="white-space: pre;" direction="ltr" dominant-baseline="text-before-edge"></text><text x="178.65834045410156" y="75" font-family="Virgil, Segoe UI Emoji" font-size="20px" fill="#e03131" text-anchor="middle" style="white-space: pre;" direction="ltr" dominant-baseline="text-before-edge">https://js2.jetstream-cloud.org:8001</text></g><g stroke-linecap="round" transform="translate(10 320.7204301075268) rotate(0 95 95)"><path d="M7.86 8.16 C7.86 8.16, 7.86 8.16, 7.86 8.16 M7.86 8.16 C7.86 8.16, 7.86 8.16, 7.86 8.16 M3.66 19.09 C7.72 14.42, 11.78 9.75, 18.1 2.48 M3.66 19.09 C9.27 12.63, 14.88 6.18, 18.1 2.48 M2.75 26.24 C8.12 20.05, 13.5 13.86, 25.05 0.58 M2.75 26.24 C10.47 17.35, 18.19 8.47, 25.05 0.58 M2.48 32.64 C9.54 24.51, 16.6 16.39, 30.7 0.18 M2.48 32.64 C11.55 22.21, 20.61 11.79, 30.7 0.18 M2.88 38.28 C11.49 28.37, 20.1 18.46, 34.37 2.05 M2.88 38.28 C11.55 28.3, 20.22 18.33, 34.37 2.05 M2.62 44.68 C13.92 31.67, 25.22 18.67, 39.36 2.41 M2.62 44.68 C10.18 35.98, 17.73 27.29, 39.36 2.41 M2.36 51.07 C18.22 32.83, 34.08 14.58, 45 2.02 M2.36 51.07 C15.33 36.15, 28.3 21.23, 45 2.02 M2.75 56.72 C21.58 35.06, 40.4 13.4, 49.99 2.38 M2.75 56.72 C13 44.93, 23.24 33.15, 49.99 2.38 M2.49 63.11 C14.35 49.47, 26.21 35.83, 55.63 1.98 M2.49 63.11 C13.3 50.68, 24.12 38.24, 55.63 1.98 M2.23 69.51 C18.34 50.98, 34.45 32.45, 60.62 2.34 M2.23 69.51 C25.39 42.87, 48.55 16.23, 60.62 2.34 M2.62 75.16 C26.27 47.95, 49.92 20.75, 66.26 1.95 M2.62 75.16 C25.61 48.71, 48.6 22.27, 66.26 1.95 M2.36 81.55 C16.18 65.65, 30.01 49.75, 71.25 2.31 M2.36 81.55 C26.75 53.5, 51.13 25.45, 71.25 2.31 M2.1 87.95 C26 60.46, 49.89 32.97, 76.89 1.91 M2.1 87.95 C23.23 63.64, 44.37 39.33, 76.89 1.91 M2.49 93.59 C21.66 71.55, 40.82 49.5, 81.88 2.27 M2.49 93.59 C31.48 60.25, 60.47 26.9, 81.88 2.27 M2.23 99.99 C21.59 77.72, 40.95 55.46, 87.52 1.88 M2.23 99.99 C26.95 71.56, 51.67 43.12, 87.52 1.88 M2.63 105.64 C36.31 66.89, 69.99 28.15, 92.51 2.24 M2.63 105.64 C27.22 77.34, 51.82 49.04, 92.51 2.24 M2.37 112.03 C22.66 88.69, 42.95 65.34, 98.15 1.85 M2.37 112.03 C23.68 87.52, 44.99 63, 98.15 1.85 M2.1 118.43 C40.99 73.7, 79.87 28.97, 103.14 2.21 M2.1 118.43 C41.51 73.1, 80.92 27.76, 103.14 2.21 M2.5 124.07 C29.06 93.52, 55.62 62.96, 108.78 1.81 M2.5 124.07 C38.36 82.83, 74.21 41.58, 108.78 1.81 M2.24 130.47 C42.82 83.78, 83.41 37.09, 113.77 2.17 M2.24 130.47 C45.98 80.15, 89.72 29.84, 113.77 2.17 M1.98 136.87 C34.23 99.76, 66.49 62.66, 119.41 1.78 M1.98 136.87 C26.44 108.73, 50.9 80.59, 119.41 1.78 M2.37 142.51 C28.22 112.78, 54.07 83.04, 124.4 2.14 M2.37 142.51 C29.83 110.93, 57.28 79.34, 124.4 2.14 M2.11 148.91 C37.6 108.08, 73.09 67.26, 130.04 1.74 M2.11 148.91 C31.07 115.59, 60.03 82.28, 130.04 1.74 M1.85 155.31 C46.65 103.77, 91.44 52.24, 135.03 2.1 M1.85 155.31 C28.58 124.56, 55.31 93.8, 135.03 2.1 M2.9 160.2 C31.46 127.34, 60.02 94.48, 140.67 1.71 M2.9 160.2 C44.22 112.67, 85.53 65.14, 140.67 1.71 M1.98 167.35 C52.71 108.99, 103.44 50.64, 145.66 2.07 M1.98 167.35 C44.9 117.98, 87.82 68.61, 145.66 2.07 M3.03 172.24 C43.08 126.16, 83.14 80.09, 150.65 2.43 M3.03 172.24 C55.33 112.07, 107.63 51.91, 150.65 2.43 M4.74 176.37 C63.89 108.33, 123.04 40.29, 158.26 -0.23 M4.74 176.37 C45.5 129.48, 86.26 82.59, 158.26 -0.23 M7.1 179.75 C43.68 137.68, 80.25 95.6, 163.24 0.13 M7.1 179.75 C43.37 138.03, 79.63 96.32, 163.24 0.13 M9.46 183.13 C66.81 117.16, 124.16 51.19, 166.92 2 M9.46 183.13 C59.04 126.09, 108.62 69.06, 166.92 2 M12.48 185.75 C63.28 127.32, 114.07 68.89, 171.91 2.36 M12.48 185.75 C75.23 113.57, 137.98 41.39, 171.91 2.36 M16.16 187.62 C68.79 127.07, 121.43 66.52, 176.24 3.47 M16.16 187.62 C52.62 145.68, 89.07 103.74, 176.24 3.47 M19.83 189.49 C68.43 133.59, 117.03 77.68, 179.26 6.1 M19.83 189.49 C54.16 150, 88.49 110.51, 179.26 6.1 M24.82 189.85 C76.14 130.82, 127.45 71.79, 182.27 8.72 M24.82 189.85 C64.54 144.16, 104.25 98.48, 182.27 8.72 M29.81 190.21 C65.75 148.87, 101.69 107.52, 185.29 11.35 M29.81 190.21 C75.16 138.04, 120.52 85.86, 185.29 11.35 M34.14 191.33 C81.75 136.56, 129.36 81.79, 187.66 14.73 M34.14 191.33 C65.4 155.36, 96.67 119.4, 187.66 14.73 M39.12 191.69 C83.23 140.95, 127.33 90.22, 189.36 18.86 M39.12 191.69 C89.32 133.95, 139.51 76.2, 189.36 18.86 M44.77 191.29 C80.12 150.62, 115.48 109.95, 189.76 24.5 M44.77 191.29 C97.62 130.5, 150.46 69.7, 189.76 24.5 M49.76 191.65 C98.31 135.79, 146.87 79.93, 190.15 30.14 M49.76 191.65 C87.82 147.87, 125.88 104.08, 190.15 30.14 M55.4 191.26 C109.88 128.58, 164.37 65.9, 192.51 33.52 M55.4 191.26 C108.11 130.62, 160.82 69.98, 192.51 33.52 M60.39 191.62 C113.1 130.98, 165.82 70.33, 192.25 39.92 M60.39 191.62 C106.34 138.75, 152.3 85.88, 192.25 39.92 M65.37 191.98 C96.86 155.75, 128.35 119.53, 191.99 46.32 M65.37 191.98 C113.53 136.58, 161.69 81.18, 191.99 46.32 M71.02 191.58 C110.42 146.25, 149.83 100.92, 192.39 51.96 M71.02 191.58 C98.84 159.57, 126.67 127.56, 192.39 51.96 M76 191.94 C120.56 140.69, 165.12 89.43, 192.12 58.36 M76 191.94 C103.44 160.38, 130.88 128.81, 192.12 58.36 M81.65 191.55 C119.99 147.44, 158.34 103.33, 191.86 64.76 M81.65 191.55 C114 154.33, 146.35 117.11, 191.86 64.76 M86.63 191.91 C128.47 143.78, 170.31 95.65, 192.26 70.4 M86.63 191.91 C118.69 155.03, 150.75 118.15, 192.26 70.4 M92.28 191.51 C127.63 150.85, 162.98 110.18, 192 76.8 M92.28 191.51 C126.05 152.67, 159.82 113.82, 192 76.8 M97.26 191.87 C134.11 149.49, 170.95 107.1, 192.39 82.44 M97.26 191.87 C125.84 158.99, 154.43 126.11, 192.39 82.44 M102.91 191.48 C137.47 151.72, 172.03 111.96, 192.13 88.84 M102.91 191.48 C127.81 162.83, 152.71 134.18, 192.13 88.84 M107.89 191.84 C130.29 166.07, 152.69 140.31, 191.87 95.24 M107.89 191.84 C125.76 171.29, 143.62 150.74, 191.87 95.24 M113.54 191.45 C140.87 160, 168.21 128.55, 192.26 100.88 M113.54 191.45 C132.96 169.1, 152.38 146.76, 192.26 100.88 M118.52 191.81 C136.99 170.56, 155.46 149.31, 192 107.28 M118.52 191.81 C147.41 158.58, 176.3 125.34, 192 107.28 M124.17 191.41 C144.13 168.44, 164.1 145.48, 192.4 112.92 M124.17 191.41 C143.97 168.63, 163.77 145.85, 192.4 112.92 M129.15 191.77 C152.22 165.24, 175.28 138.7, 192.13 119.32 M129.15 191.77 C145.63 172.81, 162.11 153.85, 192.13 119.32 M134.8 191.38 C154.19 169.06, 173.59 146.75, 191.87 125.72 M134.8 191.38 C150.54 173.26, 166.29 155.15, 191.87 125.72 M139.78 191.74 C157.84 170.97, 175.89 150.19, 192.27 131.36 M139.78 191.74 C150.57 179.33, 161.36 166.92, 192.27 131.36 M145.43 191.34 C162.34 171.89, 179.25 152.44, 192.01 137.76 M145.43 191.34 C163.45 170.61, 181.47 149.88, 192.01 137.76 M150.41 191.7 C164.07 175.99, 177.73 160.28, 192.4 143.4 M150.41 191.7 C162.13 178.22, 173.85 164.74, 192.4 143.4 M156.06 191.31 C166.67 179.1, 177.28 166.89, 192.14 149.8 M156.06 191.31 C164.13 182.02, 172.2 172.74, 192.14 149.8 M160.39 192.42 C170.97 180.25, 181.55 168.08, 189.91 158.46 M160.39 192.42 C169.36 182.1, 178.33 171.78, 189.91 158.46 M167.34 190.52 C172.32 184.8, 177.29 179.07, 189.65 164.86 M167.34 190.52 C174.12 182.72, 180.9 174.92, 189.65 164.86 M173.64 189.37 C178.16 184.17, 182.68 178.97, 188.73 172.01 M173.64 189.37 C179.2 182.97, 184.77 176.57, 188.73 172.01" stroke="#a5d8ff" stroke-width="0.5" fill="none"></path><path d="M32 0 M32 0 C69.44 0, 106.89 0, 158 0 M32 0 C77.67 0, 123.35 0, 158 0 M158 0 C179.33 0, 190 10.67, 190 32 M158 0 C179.33 0, 190 10.67, 190 32 M190 32 C190 60.28, 190 88.55, 190 158 M190 32 C190 60.04, 190 88.08, 190 158 M190 158 C190 179.33, 179.33 190, 158 190 M190 158 C190 179.33, 179.33 190, 158 190 M158 190 C126.97 190, 95.94 190, 32 190 M158 190 C109.52 190, 61.04 190, 32 190 M32 190 C10.67 190, 0 179.33, 0 158 M32 190 C10.67 190, 0 179.33, 0 158 M0 158 C0 129.82, 0 101.64, 0 32 M0 158 C0 122.76, 0 87.53, 0 32 M0 32 C0 10.67, 10.67 0, 32 0 M0 32 C0 10.67, 10.67 0, 32 0" stroke="#1971c2" stroke-width="1" fill="none"></path></g><g transform="translate(43.59166717529297 403.2204301075268) rotate(0 61.40833282470703 12.5)"><text x="61.40833282470703" y="0" font-family="Virgil, Segoe UI Emoji" font-size="20px" fill="#1971c2" text-anchor="middle" style="white-space: pre;" direction="ltr" dominant-baseline="text-before-edge">Web Browser</text></g><g stroke-linecap="round" transform="translate(561.25 320.7204301075268) rotate(0 126 95)"><path d="M7.86 8.16 C7.86 8.16, 7.86 8.16, 7.86 8.16 M7.86 8.16 C7.86 8.16, 7.86 8.16, 7.86 8.16 M3.66 19.09 C9.2 12.72, 14.74 6.35, 18.1 2.48 M3.66 19.09 C9.16 12.76, 14.66 6.43, 18.1 2.48 M2.75 26.24 C11.22 16.49, 19.69 6.75, 25.05 0.58 M2.75 26.24 C7.24 21.07, 11.73 15.9, 25.05 0.58 M2.48 32.64 C10.1 23.88, 17.71 15.12, 30.7 0.18 M2.48 32.64 C12.21 21.44, 21.94 10.25, 30.7 0.18 M2.88 38.28 C14.09 25.38, 25.3 12.49, 34.37 2.05 M2.88 38.28 C11.41 28.47, 19.93 18.66, 34.37 2.05 M2.62 44.68 C14.35 31.18, 26.08 17.69, 39.36 2.41 M2.62 44.68 C10.6 35.49, 18.59 26.31, 39.36 2.41 M2.36 51.07 C18.55 32.45, 34.74 13.82, 45 2.02 M2.36 51.07 C14.8 36.76, 27.24 22.45, 45 2.02 M2.75 56.72 C19.52 37.43, 36.28 18.14, 49.99 2.38 M2.75 56.72 C15.1 42.51, 27.45 28.3, 49.99 2.38 M2.49 63.11 C14.19 49.66, 25.89 36.2, 55.63 1.98 M2.49 63.11 C15.46 48.2, 28.42 33.28, 55.63 1.98 M2.23 69.51 C23.67 44.85, 45.1 20.19, 60.62 2.34 M2.23 69.51 C19.65 49.48, 37.06 29.44, 60.62 2.34 M2.62 75.16 C25.77 48.52, 48.92 21.89, 66.26 1.95 M2.62 75.16 C22.66 52.1, 42.7 29.05, 66.26 1.95 M2.36 81.55 C17.06 64.64, 31.76 47.73, 71.25 2.31 M2.36 81.55 C16.6 65.17, 30.84 48.79, 71.25 2.31 M2.1 87.95 C25.59 60.93, 49.09 33.9, 76.89 1.91 M2.1 87.95 C32 53.56, 61.89 19.17, 76.89 1.91 M2.49 93.59 C27.77 64.52, 53.04 35.45, 81.88 2.27 M2.49 93.59 C20.23 73.2, 37.96 52.8, 81.88 2.27 M2.23 99.99 C27.13 71.35, 52.03 42.7, 87.52 1.88 M2.23 99.99 C19.42 80.22, 36.6 60.45, 87.52 1.88 M2.63 105.64 C36.23 66.98, 69.83 28.32, 92.51 2.24 M2.63 105.64 C24.44 80.54, 46.25 55.45, 92.51 2.24 M2.37 112.03 C34.48 75.09, 66.59 38.15, 98.15 1.85 M2.37 112.03 C34.08 75.55, 65.79 39.07, 98.15 1.85 M2.1 118.43 C26.26 90.65, 50.41 62.87, 103.14 2.21 M2.1 118.43 C34.13 81.59, 66.15 44.76, 103.14 2.21 M2.5 124.07 C44.92 75.27, 87.35 26.47, 108.78 1.81 M2.5 124.07 C24.52 98.74, 46.54 73.41, 108.78 1.81 M2.24 130.47 C29.02 99.67, 55.79 68.86, 113.77 2.17 M2.24 130.47 C41.97 84.77, 81.7 39.07, 113.77 2.17 M1.98 136.87 C32.05 102.28, 62.11 67.69, 119.41 1.78 M1.98 136.87 C43.82 88.73, 85.66 40.6, 119.41 1.78 M2.37 142.51 C35.38 104.54, 68.38 66.58, 124.4 2.14 M2.37 142.51 C30.24 110.45, 58.12 78.39, 124.4 2.14 M2.11 148.91 C52.69 90.72, 103.28 32.53, 130.04 1.74 M2.11 148.91 C42.11 102.89, 82.12 56.87, 130.04 1.74 M1.85 155.31 C40.58 110.76, 79.3 66.21, 135.03 2.1 M1.85 155.31 C36.37 115.59, 70.9 75.88, 135.03 2.1 M2.9 160.2 C47.53 108.86, 92.16 57.51, 140.67 1.71 M2.9 160.2 C46.78 109.72, 90.66 59.23, 140.67 1.71 M1.98 167.35 C34.86 129.52, 67.74 91.7, 145.66 2.07 M1.98 167.35 C49.71 112.44, 97.44 57.54, 145.66 2.07 M3.03 172.24 C42.24 127.14, 81.44 82.04, 150.65 2.43 M3.03 172.24 C36.05 134.26, 69.06 96.28, 150.65 2.43 M4.74 176.37 C47.12 127.62, 89.5 78.86, 156.29 2.03 M4.74 176.37 C63.64 108.62, 122.54 40.86, 156.29 2.03 M7.1 179.75 C47.4 133.39, 87.71 87.02, 161.28 2.39 M7.1 179.75 C66.59 111.31, 126.09 42.87, 161.28 2.39 M9.46 183.13 C41.8 145.93, 74.14 108.72, 166.92 2 M9.46 183.13 C61.06 123.77, 112.66 64.41, 166.92 2 M12.48 185.75 C55.48 136.29, 98.48 86.83, 171.91 2.36 M12.48 185.75 C71.59 117.76, 130.69 49.77, 171.91 2.36 M16.16 187.62 C54.15 143.92, 92.15 100.21, 177.55 1.96 M16.16 187.62 C65.6 130.74, 115.05 73.86, 177.55 1.96 M19.83 189.49 C63.1 139.72, 106.36 89.95, 182.54 2.32 M19.83 189.49 C60.76 142.41, 101.69 95.32, 182.54 2.32 M24.82 189.85 C84.66 121.02, 144.5 52.18, 188.18 1.93 M24.82 189.85 C63.92 144.87, 103.03 99.88, 188.18 1.93 M29.81 190.21 C85.79 125.81, 141.78 61.41, 193.17 2.29 M29.81 190.21 C80.38 132.04, 130.95 73.86, 193.17 2.29 M34.14 191.33 C77.24 141.74, 120.35 92.15, 198.81 1.9 M34.14 191.33 C83.43 134.63, 132.72 77.93, 198.81 1.9 M39.12 191.69 C73.69 151.92, 108.26 112.16, 203.8 2.26 M39.12 191.69 C94.08 128.47, 149.04 65.24, 203.8 2.26 M44.77 191.29 C102.86 124.46, 160.95 57.64, 209.44 1.86 M44.77 191.29 C80.44 150.26, 116.1 109.23, 209.44 1.86 M49.76 191.65 C98.26 135.85, 146.77 80.05, 214.43 2.22 M49.76 191.65 C102.59 130.87, 155.43 70.09, 214.43 2.22 M55.4 191.26 C111.19 127.08, 166.97 62.91, 220.72 1.07 M55.4 191.26 C118.13 119.1, 180.85 46.94, 220.72 1.07 M60.39 191.62 C100.21 145.81, 140.03 100, 225.71 1.43 M60.39 191.62 C122.48 120.19, 184.57 48.76, 225.71 1.43 M65.37 191.98 C111.65 138.74, 157.93 85.5, 230.04 2.55 M65.37 191.98 C120.34 128.75, 175.3 65.52, 230.04 2.55 M71.02 191.58 C105.5 151.92, 139.98 112.25, 235.03 2.91 M71.02 191.58 C105.5 151.91, 139.99 112.24, 235.03 2.91 M76 191.94 C127.44 132.78, 178.87 73.61, 238.7 4.78 M76 191.94 C122.14 138.87, 168.28 85.8, 238.7 4.78 M81.65 191.55 C142.92 121.06, 204.2 50.56, 242.38 6.65 M81.65 191.55 C121.06 146.21, 160.47 100.87, 242.38 6.65 M86.63 191.91 C140.98 129.39, 195.33 66.87, 245.4 9.27 M86.63 191.91 C148.61 120.61, 210.59 49.31, 245.4 9.27 M92.28 191.51 C131.1 146.86, 169.92 102.2, 247.76 12.65 M92.28 191.51 C140.23 136.34, 188.19 81.17, 247.76 12.65 M97.26 191.87 C146.96 134.7, 196.66 77.53, 249.47 16.78 M97.26 191.87 C138.92 143.96, 180.57 96.04, 249.47 16.78 M102.91 191.48 C151.83 135.2, 200.75 78.93, 251.83 20.16 M102.91 191.48 C152.92 133.95, 202.93 76.41, 251.83 20.16 M107.89 191.84 C137.3 158.01, 166.7 124.19, 252.88 25.05 M107.89 191.84 C152.95 140.01, 198.01 88.18, 252.88 25.05 M113.54 191.45 C147.84 151.98, 182.15 112.51, 251.96 32.2 M113.54 191.45 C151.06 148.28, 188.58 105.12, 251.96 32.2 M118.52 191.81 C168.36 134.47, 218.2 77.14, 252.36 37.85 M118.52 191.81 C163.58 139.97, 208.64 88.13, 252.36 37.85 M124.17 191.41 C156.8 153.87, 189.43 116.33, 252.1 44.24 M124.17 191.41 C170.94 137.61, 217.71 83.8, 252.1 44.24 M129.15 191.77 C154.15 163.02, 179.14 134.27, 251.84 50.64 M129.15 191.77 C171.4 143.17, 213.65 94.57, 251.84 50.64 M134.8 191.38 C171.75 148.86, 208.71 106.35, 252.23 56.28 M134.8 191.38 C167.53 153.72, 200.27 116.06, 252.23 56.28 M139.78 191.74 C177.07 148.84, 214.36 105.94, 251.97 62.68 M139.78 191.74 C182.92 142.12, 226.05 92.5, 251.97 62.68 M145.43 191.34 C167.72 165.7, 190.01 140.05, 252.36 68.32 M145.43 191.34 C185.81 144.88, 226.2 98.42, 252.36 68.32 M150.41 191.7 C187.15 149.44, 223.88 107.18, 252.1 74.72 M150.41 191.7 C177.42 160.63, 204.43 129.57, 252.1 74.72 M156.06 191.31 C178.59 165.39, 201.12 139.47, 251.84 81.12 M156.06 191.31 C178.78 165.17, 201.5 139.03, 251.84 81.12 M161.04 191.67 C193.9 153.87, 226.75 116.08, 252.24 86.76 M161.04 191.67 C184.21 165.02, 207.37 138.38, 252.24 86.76 M166.69 191.27 C193.22 160.75, 219.75 130.23, 251.97 93.16 M166.69 191.27 C195.7 157.89, 224.72 124.51, 251.97 93.16 M171.67 191.63 C201.26 157.6, 230.84 123.56, 252.37 98.8 M171.67 191.63 C201.84 156.93, 232.01 122.22, 252.37 98.8 M176.66 191.99 C196.98 168.62, 217.31 145.24, 252.11 105.2 M176.66 191.99 C205.11 159.26, 233.57 126.53, 252.11 105.2 M182.3 191.6 C202.1 168.82, 221.9 146.04, 251.85 111.6 M182.3 191.6 C203.66 167.03, 225.02 142.46, 251.85 111.6 M187.29 191.96 C210.7 165.03, 234.11 138.09, 252.24 117.24 M187.29 191.96 C209.79 166.08, 232.29 140.2, 252.24 117.24 M192.93 191.56 C215.73 165.34, 238.52 139.12, 251.98 123.64 M192.93 191.56 C210.27 171.62, 227.6 151.68, 251.98 123.64 M197.92 191.92 C217.09 169.87, 236.26 147.82, 252.37 129.28 M197.92 191.92 C211.76 176.01, 225.6 160.09, 252.37 129.28 M203.56 191.53 C213.73 179.83, 223.9 168.14, 252.11 135.68 M203.56 191.53 C214.77 178.64, 225.97 165.75, 252.11 135.68 M208.55 191.89 C218.47 180.48, 228.38 169.08, 251.85 142.08 M208.55 191.89 C217.83 181.21, 227.11 170.53, 251.85 142.08 M214.19 191.5 C224.12 180.08, 234.04 168.67, 252.24 147.72 M214.19 191.5 C228.43 175.12, 242.67 158.74, 252.24 147.72 M220.49 190.35 C229.73 179.72, 238.97 169.09, 251.98 154.12 M220.49 190.35 C231.48 177.71, 242.47 165.07, 251.98 154.12 M226.14 189.95 C234.56 180.26, 242.98 170.57, 253.03 159.01 M226.14 189.95 C232.51 182.62, 238.88 175.29, 253.03 159.01 M229.81 191.82 C235.7 185.04, 241.6 178.26, 252.12 166.16 M229.81 191.82 C236.22 184.45, 242.63 177.08, 252.12 166.16 M240.05 186.14 C242.26 183.6, 244.48 181.05, 247.26 177.84 M240.05 186.14 C242.14 183.74, 244.23 181.33, 247.26 177.84" stroke="#a5d8ff" stroke-width="0.5" fill="none"></path><path d="M32 0 M32 0 C103.08 0, 174.15 0, 220 0 M32 0 C82.21 0, 132.42 0, 220 0 M220 0 C241.33 0, 252 10.67, 252 32 M220 0 C241.33 0, 252 10.67, 252 32 M252 32 C252 63.24, 252 94.48, 252 158 M252 32 C252 74.61, 252 117.22, 252 158 M252 158 C252 179.33, 241.33 190, 220 190 M252 158 C252 179.33, 241.33 190, 220 190 M220 190 C166.38 190, 112.76 190, 32 190 M220 190 C166.32 190, 112.63 190, 32 190 M32 190 C10.67 190, 0 179.33, 0 158 M32 190 C10.67 190, 0 179.33, 0 158 M0 158 C0 131.29, 0 104.58, 0 32 M0 158 C0 122.61, 0 87.23, 0 32 M0 32 C0 10.67, 10.67 0, 32 0 M0 32 C0 10.67, 10.67 0, 32 0" stroke="#1971c2" stroke-width="1" fill="none"></path></g><g transform="translate(580.091667175293 378.2204301075268) rotate(0 107.15833282470703 37.5)"><text x="107.15833282470703" y="0" font-family="Virgil, Segoe UI Emoji" font-size="20px" fill="#1971c2" text-anchor="middle" style="white-space: pre;" direction="ltr" dominant-baseline="text-before-edge">Web Server:</text><text x="107.15833282470703" y="25" font-family="Virgil, Segoe UI Emoji" font-size="20px" fill="#1971c2" text-anchor="middle" style="white-space: pre;" direction="ltr" dominant-baseline="text-before-edge"></text><text x="107.15833282470703" y="50" font-family="Virgil, Segoe UI Emoji" font-size="20px" fill="#1971c2" text-anchor="middle" style="white-space: pre;" direction="ltr" dominant-baseline="text-before-edge">https://mycoolsite.com</text></g><g mask="url(#mask-BzVfNwIU7Av7P7Oktx_Lm)" stroke-linecap="round"><g transform="translate(201 378.2204301075268) rotate(0 182 0)"><path d="M0 0 C60.67 0, 303.33 0, 364 0 M0 0 C60.67 0, 303.33 0, 364 0" stroke="#1971c2" stroke-width="1" fill="none"></path></g><g transform="translate(201 378.2204301075268) rotate(0 182 0)"><path d="M28.19 -10.26 C20.37 -7.42, 12.56 -4.57, 0 0 M28.19 -10.26 C21.84 -7.95, 15.5 -5.64, 0 0" stroke="#1971c2" stroke-width="1" fill="none"></path></g><g transform="translate(201 378.2204301075268) rotate(0 182 0)"><path d="M28.19 10.26 C20.37 7.42, 12.56 4.57, 0 0 M28.19 10.26 C21.84 7.95, 15.5 5.64, 0 0" stroke="#1971c2" stroke-width="1" fill="none"></path></g><g transform="translate(201 378.2204301075268) rotate(0 182 0)"><path d="M335.81 10.26 C343.63 7.42, 351.44 4.57, 364 0 M335.81 10.26 C342.16 7.95, 348.5 5.64, 364 0" stroke="#1971c2" stroke-width="1" fill="none"></path></g><g transform="translate(201 378.2204301075268) rotate(0 182 0)"><path d="M335.81 -10.26 C343.63 -7.42, 351.44 -4.57, 364 0 M335.81 -10.26 C342.16 -7.95, 348.5 -5.64, 364 0" stroke="#1971c2" stroke-width="1" fill="none"></path></g></g><mask id="mask-BzVfNwIU7Av7P7Oktx_Lm"><rect x="0" y="0" fill="#fff" width="665" height="478.2204301075268"></rect><rect x="279.75" y="365.7204301075268" fill="#000" width="206.5" height="25" opacity="1"></rect></mask><g transform="translate(279.75 365.7204301075268) rotate(0 103.25 12.5)"><text x="103.25" y="0" font-family="Virgil, Segoe UI Emoji" font-size="20px" fill="#1971c2" text-anchor="middle" style="white-space: pre;" direction="ltr" dominant-baseline="text-before-edge">GET mycoolsite page</text></g><g mask="url(#mask-PMbf0qIpXbt8p8X8KRfWY)" stroke-linecap="round"><g transform="translate(100 319.4704301075268) rotate(0 0 -78.125)"><path d="M0 0 C0 -26.04, 0 -130.21, 0 -156.25 M0 0 C0 -26.04, 0 -130.21, 0 -156.25" stroke="#e03131" stroke-width="1" fill="none"></path></g><g transform="translate(100 319.4704301075268) rotate(0 0 -78.125)"><path d="M-10.26 -28.19 C-7.58 -20.82, -4.89 -13.45, 0 0 M-10.26 -28.19 C-8.12 -22.32, -5.98 -16.44, 0 0" stroke="#e03131" stroke-width="1" fill="none"></path></g><g transform="translate(100 319.4704301075268) rotate(0 0 -78.125)"><path d="M10.26 -28.19 C7.58 -20.82, 4.89 -13.45, 0 0 M10.26 -28.19 C8.12 -22.32, 5.98 -16.44, 0 0" stroke="#e03131" stroke-width="1" fill="none"></path></g><g transform="translate(100 319.4704301075268) rotate(0 0 -78.125)"><path d="M10.26 -128.06 C7.58 -135.43, 4.89 -142.8, 0 -156.25 M10.26 -128.06 C8.12 -133.93, 5.98 -139.81, 0 -156.25" stroke="#e03131" stroke-width="1" fill="none"></path></g><g transform="translate(100 319.4704301075268) rotate(0 0 -78.125)"><path d="M-10.26 -128.06 C-7.58 -135.43, -4.89 -142.8, 0 -156.25 M-10.26 -128.06 C-8.12 -133.93, -5.98 -139.81, 0 -156.25" stroke="#e03131" stroke-width="1" fill="none"></path></g></g><mask id="mask-PMbf0qIpXbt8p8X8KRfWY"><rect x="0" y="0" fill="#fff" width="200" height="575.7204301075268"></rect><rect x="10.883331298828125" y="228.8454301075268" fill="#000" width="178.23333740234375" height="25" opacity="1"></rect></mask><g transform="translate(10.883331298828125 228.8454301075268) rotate(0 89.11666870117188 12.5)"><text x="89.11666870117188" y="0" font-family="Virgil, Segoe UI Emoji" font-size="20px" fill="#e03131" text-anchor="middle" style="white-space: pre;" direction="ltr" dominant-baseline="text-before-edge">GET bucket data</text></g></svg>